<svg version="1.1" id="Layer_1" xmlns="http://www.w3.org/2000/svg" xmlns:xlink="http://www.w3.org/1999/xlink" x="0px" y="0px"
	 width="100%" viewBox="0 0 851 420" enable-background="new 0 0 851 420" xml:space="preserve">
<path fill="#000000" opacity="1.000000" stroke="none" 
	d="
M502.000000,421.000000 
	C334.666656,421.000000 167.833328,421.000000 1.000000,421.000000 
	C1.000000,281.000000 1.000000,141.000000 1.000000,1.000000 
	C284.666656,1.000000 568.333313,1.000000 852.000000,1.000000 
	C852.000000,141.000000 852.000000,281.000000 852.000000,421.000000 
	C735.500000,421.000000 619.000000,421.000000 502.000000,421.000000 
M403.946655,188.499084 
	C403.946655,188.499084 404.076599,188.066010 404.718872,187.670547 
	C406.394257,180.901016 408.069641,174.131485 409.835632,166.995895 
	C412.520630,166.995895 415.165314,166.914856 417.803070,167.015533 
	C421.453522,167.154892 424.050446,166.236099 423.995789,161.886551 
	C423.939911,157.437805 421.089752,156.927444 417.576904,156.980713 
	C411.922638,157.066467 406.266113,157.000916 400.610565,157.003479 
	C393.957031,157.006485 387.303314,156.985168 380.650024,157.030670 
	C376.825836,157.056824 375.354401,159.821259 375.185333,162.892090 
	C374.993408,166.377640 377.726898,167.079880 380.690460,167.005844 
	C382.960663,166.949127 385.233398,166.994537 387.919037,166.994537 
	C386.888458,172.229462 385.752960,176.705795 385.213226,181.252838 
	C384.918121,183.738785 383.564453,187.194489 388.051208,188.500809 
	C388.051208,188.500809 387.920105,188.941696 387.124573,188.981842 
	C386.461365,188.997742 385.505768,188.736176 385.183563,189.075699 
	C383.426910,190.926666 381.826172,192.925644 380.171814,194.873703 
	C382.003113,195.913879 383.754150,197.598343 385.685028,197.838776 
	C388.383972,198.174835 391.217468,197.211349 393.992615,197.216629 
	C396.693970,197.221786 399.394348,197.746933 401.196198,198.216156 
	C396.420288,198.478973 391.639984,199.000809 386.869965,198.919296 
	C383.313782,198.858521 381.658691,200.416077 381.046265,203.615723 
	C379.715363,210.569046 378.287628,217.506592 377.124298,224.488068 
	C376.560730,227.870071 378.153503,229.942337 381.794830,229.977448 
	C385.123108,230.009537 388.477692,229.732422 391.774048,230.060394 
	C396.065796,230.487411 397.916351,228.210724 398.652222,224.564362 
	C399.857788,218.590591 401.056458,212.606644 401.938324,206.580215 
	C402.349274,203.772141 402.011292,200.854477 402.775421,197.974686 
	C404.175781,196.517487 406.331482,195.237152 406.727722,193.544846 
	C407.023071,192.283432 405.042938,190.489212 403.946655,188.499084 
M278.816101,187.936234 
	C279.354492,187.577438 280.289734,187.292725 280.372559,186.848892 
	C281.970673,178.287247 283.536346,169.718033 284.946136,161.123718 
	C285.360992,158.594696 284.233856,157.010895 281.346436,156.989212 
	C278.541229,156.968170 275.776276,157.039780 275.125305,160.469437 
	C273.652557,168.228653 272.358826,176.021835 270.361572,183.943604 
	C269.931915,183.957367 269.502289,183.971130 268.764435,183.377670 
	C263.899078,179.164322 259.085876,174.888718 254.153839,170.754913 
	C249.102585,166.521179 244.103012,162.193390 238.766296,158.342651 
	C234.315369,155.131073 227.708221,156.525726 226.710541,160.975967 
	C224.773895,169.614624 223.634674,178.432037 222.309921,187.699951 
	C222.281738,188.189728 222.253540,188.679520 221.525131,189.285889 
	C216.433578,193.966507 216.545654,194.675781 222.779709,197.224548 
	C222.651749,197.436279 222.549210,197.671005 222.386337,197.851196 
	C222.288300,197.959625 222.096344,197.983154 221.216125,198.122482 
	C219.146774,206.918945 216.919083,215.684540 215.191391,224.547607 
	C214.952576,225.772720 216.930313,228.368362 218.332748,228.775131 
	C221.060486,229.566299 224.170090,229.181488 224.898407,225.435074 
	C226.402359,217.698822 227.773651,209.936783 229.787430,202.420898 
	C235.742645,207.648514 241.622116,212.965927 247.678360,218.073746 
	C252.078827,221.785095 256.548004,225.459930 261.288391,228.710892 
	C266.285370,232.137817 272.285950,230.266159 273.437164,224.935242 
	C274.926086,218.040497 275.813324,211.015808 277.347534,203.367584 
	C278.433380,200.767639 279.840607,198.247406 280.511261,195.544449 
	C281.134369,193.033142 282.214203,189.846298 277.929291,188.487732 
	C277.929291,188.487732 278.063721,188.068253 278.816101,187.936234 
M425.654053,128.629257 
	C427.704193,125.571243 428.478333,122.817848 425.377838,119.639687 
	C421.157776,115.313911 417.515778,110.429581 413.401581,105.992760 
	C411.559296,104.005989 409.504639,103.521408 407.669006,106.596733 
	C405.927338,109.514603 403.616180,112.089592 401.593292,114.843178 
	C397.009583,121.082603 397.019043,121.089546 403.038605,126.653557 
	C406.054840,130.292084 409.015991,133.978210 412.105255,137.553650 
	C414.457916,140.276566 417.004333,139.954697 419.110992,137.307861 
	C421.236755,134.637085 423.068237,131.732056 425.654053,128.629257 
M331.597809,188.039719 
	C331.703247,188.339203 331.808716,188.638672 330.990875,189.020752 
	C323.677155,188.988708 316.363434,188.956665 308.946472,188.486908 
	C308.946472,188.486908 309.079315,188.057251 309.707123,187.680252 
	C309.993835,186.172546 310.868164,184.484818 310.470490,183.186783 
	C308.147156,175.603241 305.435638,168.139572 303.042480,160.576141 
	C301.807922,156.674347 298.685516,156.415283 295.854187,157.198730 
	C293.968475,157.720520 291.591064,159.752380 291.125763,161.547073 
	C289.186371,169.027298 287.759827,176.652527 286.498077,184.282928 
	C286.316925,185.378433 288.064789,186.792908 289.052765,188.489105 
	C289.052765,188.489105 288.948700,188.926682 288.170776,189.019287 
	C286.477295,190.370804 284.073090,191.391449 283.254333,193.150208 
	C281.975159,195.898026 284.088074,197.101685 286.742004,197.215408 
	C286.631775,197.426849 286.550751,197.662964 286.400635,197.840714 
	C286.306885,197.951660 286.108856,197.974533 285.213135,198.124054 
	C284.686890,198.710327 283.814453,199.229996 283.686890,199.892975 
	C282.069641,208.298248 280.324188,216.694473 279.255615,225.174194 
	C279.079071,226.575043 281.716003,229.187912 283.530273,229.781723 
	C286.268341,230.677872 289.271393,229.996552 289.948364,226.214111 
	C291.191528,219.268311 292.412811,212.318604 293.609406,205.561447 
	C295.779907,211.386642 297.807617,217.640717 300.491211,223.599411 
	C301.456818,225.743362 303.797211,228.185410 305.889679,228.606720 
	C307.487244,228.928391 310.154999,226.647034 311.524475,224.884705 
	C315.757721,219.437012 319.597565,213.683624 323.975800,207.504669 
	C322.961823,212.700760 322.045410,217.314850 321.163666,221.935562 
	C320.037476,227.837463 321.766510,229.949890 327.753632,229.990005 
	C330.918030,230.011215 334.156189,230.385193 337.218658,229.823532 
	C338.935822,229.508621 341.432434,227.838058 341.742401,226.386383 
	C343.460632,218.338974 344.615265,210.171204 346.118317,201.371475 
	C346.515167,200.200912 346.559082,198.588287 347.372192,197.939117 
	C350.315247,195.589478 350.924683,193.043076 348.951660,189.181366 
	C348.918610,188.489563 348.885559,187.797760 349.016357,186.296326 
	C350.434540,178.720062 351.645508,171.095993 353.377258,163.592087 
	C354.030182,160.762802 354.165344,158.185242 351.326050,157.510330 
	C349.682495,157.119629 346.781830,158.447174 345.686371,159.922043 
	C340.098389,167.445786 334.922394,175.275162 329.584320,182.985184 
	C327.981659,185.299942 328.384735,186.928207 331.597809,188.039719 
M243.139328,15.054790 
	C240.550034,15.370381 237.968338,15.794594 235.369675,15.976008 
	C231.506592,16.245697 231.388000,18.245323 233.011429,20.939846 
	C236.546249,26.806778 240.106506,32.661110 243.794693,38.432182 
	C248.099121,45.167465 249.302719,45.423630 257.604095,41.776318 
	C262.318756,40.299675 267.033447,38.823029 272.768829,37.026688 
	C267.895905,29.388815 263.727600,22.325119 258.915009,15.731674 
	C257.874573,14.306217 254.522751,14.197964 252.223541,14.156952 
	C249.489685,14.108188 246.742889,14.786837 243.139328,15.054790 
M314.261200,28.804630 
	C312.877197,28.340080 311.145569,27.112078 310.174377,27.554243 
	C307.268860,28.877077 304.615784,30.786987 301.949677,32.593903 
	C299.388306,34.329842 299.589172,36.557365 300.981537,39.015633 
	C304.077911,44.482384 307.047821,50.020882 310.154633,55.481594 
	C311.835297,58.435673 314.138672,60.550983 318.301056,60.818787 
	C322.918396,58.633545 327.585999,56.542271 332.085907,54.137253 
	C332.613983,53.855015 332.668915,51.610138 332.179535,50.674580 
	C328.747131,44.112911 325.185547,37.615356 321.509766,31.186180 
	C320.052795,28.637753 317.832672,27.501375 314.261200,28.804630 
M377.966034,330.238831 
	C374.285248,319.784698 370.646240,309.315613 366.904663,298.883301 
	C365.232574,294.221161 363.754150,293.605499 360.082550,296.463318 
	C353.264771,301.770020 346.661652,307.352509 339.326508,313.257507 
	C338.938293,315.307709 337.837921,317.525055 338.273804,319.381805 
	C341.994171,335.230469 345.979645,351.017059 349.916077,366.814667 
	C351.389282,372.726990 352.525635,373.056702 356.904999,368.555481 
	C362.911957,362.381439 368.495361,355.770630 374.759705,349.877838 
	C383.301758,341.842346 381.630402,340.808685 377.966034,330.238831 
M494.994873,178.190292 
	C494.274719,174.526566 492.011780,172.954086 488.322968,172.996353 
	C481.672760,173.072556 475.021057,173.013641 468.369965,173.016006 
	C460.259979,173.018890 458.840881,174.052780 455.311920,182.326187 
	C454.818573,182.296097 454.325256,182.266006 453.931274,181.405396 
	C453.732391,175.121918 451.709930,173.061249 445.579529,173.024216 
	C439.425446,172.987030 433.270935,173.012527 427.116608,173.016098 
	C419.708313,173.020416 416.083313,174.631287 414.470734,181.583038 
	C411.391846,194.856018 409.132660,208.345383 407.164642,221.837036 
	C406.362396,227.336731 408.510620,228.924026 414.048035,228.970230 
	C420.700897,229.025742 427.354584,228.988113 434.007904,228.983643 
	C441.444580,228.978638 444.517395,226.420059 446.695740,218.661057 
	C447.185638,218.692078 447.675537,218.723083 448.067169,219.635040 
	C447.956360,227.991455 448.946259,228.980209 457.439911,228.984207 
	C462.738037,228.986710 468.073273,228.589722 473.325104,229.082794 
	C480.180359,229.726395 484.887604,227.525589 487.572296,220.880096 
	C487.572296,220.880096 487.934326,221.032333 487.902924,221.817291 
	C488.080536,224.076767 487.384644,227.329620 488.605255,228.402908 
	C491.816101,231.226212 501.156097,228.456970 503.160095,224.459732 
	C506.234894,218.326691 509.070679,212.073807 512.492493,205.972198 
	C512.492493,205.972198 512.959351,206.136124 512.966125,206.935501 
	C511.770874,212.395966 510.666199,217.878357 509.350983,223.309784 
	C508.342926,227.472733 509.718323,229.136917 514.055908,229.039322 
	C522.200317,228.856079 530.351746,228.989227 538.500305,228.987518 
	C545.493469,228.986069 547.245239,227.685181 549.883972,221.158279 
	C552.210754,215.402863 554.748291,209.732666 557.192749,204.024841 
	C557.015503,210.453659 555.870056,216.633774 554.583679,222.784409 
	C553.466003,228.128387 554.022034,228.966110 559.480103,228.976562 
	C575.278259,229.006805 591.076477,228.996582 606.874695,228.983704 
	C613.640137,228.978180 616.200806,226.869263 618.106812,220.261566 
	C619.181396,216.536102 620.589722,212.906906 621.928223,210.018158 
	C621.288818,213.580185 620.254272,217.125214 620.100342,220.708099 
	C619.853638,226.446564 622.506409,228.948868 628.173828,228.984055 
	C635.505188,229.029556 642.840820,229.130814 650.167664,228.940536 
	C655.826416,228.793610 661.367371,222.243393 660.757996,215.355515 
	C660.211670,209.180176 654.684631,213.099609 651.553101,212.009537 
	C651.404480,211.957809 651.221008,212.015854 651.055725,212.001160 
	C646.822144,211.625198 644.102295,212.663376 643.758545,217.750092 
	C643.529663,221.136719 641.227112,223.063293 637.249634,221.292633 
	C637.197449,220.304596 636.940125,219.291672 637.126221,218.368088 
	C639.407593,207.048416 641.754761,195.742004 644.083191,184.431808 
	C644.892883,180.498428 647.479370,180.633713 651.095337,181.615204 
	C650.396484,185.078461 649.578186,188.382950 649.093872,191.735672 
	C648.564636,195.399521 648.929810,198.462540 654.037048,198.052368 
	C657.672302,197.760422 661.350281,198.001526 665.008728,198.849457 
	C663.488403,206.609421 661.785461,214.340958 660.569641,222.148361 
	C660.244995,224.232803 660.710510,227.824738 662.012085,228.538528 
	C667.668945,231.640671 674.474670,228.213455 677.140015,222.064133 
	C680.745972,213.745026 684.736633,205.592667 688.273193,197.990097 
	C692.321106,197.990097 695.789307,197.804489 699.228943,198.038605 
	C703.238403,198.311493 705.062988,196.043762 705.854370,192.702393 
	C706.992188,187.898422 708.060669,183.054245 708.683350,178.166656 
	C708.868347,176.714691 707.890076,174.405136 706.698242,173.615601 
	C702.552246,170.869080 693.412109,173.421051 691.113159,177.931915 
	C688.541748,182.977417 686.395691,188.239655 684.064575,193.407578 
	C684.640808,188.690140 685.903198,184.099945 686.610413,179.425720 
	C686.897705,177.526566 686.198303,173.796265 685.570679,173.712128 
	C681.338867,173.144775 676.840210,172.639343 672.784729,173.607864 
	C671.098877,174.010468 669.881226,177.965088 669.162842,180.505829 
	C667.524658,186.299454 666.326355,192.217422 664.764954,197.250549 
	C665.507996,191.384109 666.394531,185.531174 666.947571,179.646881 
	C667.372803,175.122162 665.058533,172.930954 660.458069,172.985703 
	C653.655090,173.066681 646.850342,172.991516 640.046387,173.006821 
	C633.764221,173.020950 630.259460,175.523636 628.304138,181.538437 
	C627.390869,184.347809 626.711609,187.233276 625.503845,190.219437 
	C625.503845,190.219437 625.079163,190.091568 625.039429,189.237411 
	C625.355164,186.135040 625.890686,183.035904 625.936279,179.929581 
	C626.008118,175.032166 623.971741,173.067123 619.067993,173.028839 
	C611.600403,172.970566 604.125793,172.847305 596.667725,173.120987 
	C594.551025,173.198669 591.358032,173.976807 590.598938,175.440247 
	C588.234985,179.997223 586.801208,185.036743 584.214417,189.980499 
	C582.484497,189.598145 580.754578,189.215790 579.005920,188.021286 
	C579.625854,184.971741 580.785217,181.902100 580.672668,178.879837 
	C580.599792,176.921036 579.057861,173.813126 577.504822,173.317459 
	C569.983276,170.916962 565.433594,173.175095 561.926514,180.355240 
	C560.709045,182.847824 559.854126,185.517487 558.242859,188.097900 
	C557.854004,188.045609 557.465149,187.993317 557.038147,187.132355 
	C557.675232,184.081924 558.724792,181.039169 558.781677,177.977966 
	C558.811646,176.361511 557.337708,173.530945 556.149719,173.303787 
	C552.787842,172.660934 549.177307,172.754730 545.760925,173.238037 
	C544.401733,173.430313 542.926208,175.213150 542.173889,176.628235 
	C541.361023,178.157318 541.331421,180.102829 540.110657,181.996384 
	C538.396851,181.884766 536.682983,181.773148 535.401917,181.055710 
	C534.863892,178.541031 535.174377,174.978302 533.619568,173.719467 
	C529.824768,170.647079 520.490662,173.445801 518.125427,177.871872 
	C516.068176,181.721512 514.373108,185.764664 512.518005,189.722321 
	C512.342407,186.620300 512.984863,183.800430 513.497192,180.957123 
	C514.691040,174.331436 515.983948,167.714920 516.829468,161.043106 
	C516.980896,159.847946 515.397949,157.510681 514.242188,157.227921 
	C508.481598,155.818573 500.444000,161.050903 499.253784,166.715225 
	C498.444489,170.566849 497.879700,174.469849 496.924286,178.942688 
	C496.303467,178.941986 495.682678,178.941284 494.994873,178.190292 
M68.395844,308.248077 
	C63.762543,312.498260 59.085667,316.702209 54.508560,321.012054 
	C50.191208,325.077301 50.288803,326.479675 54.225643,330.763367 
	C64.514832,341.959106 74.774940,353.182739 84.930840,364.499207 
	C89.322823,369.393066 90.724838,369.480713 94.967888,364.542511 
	C99.588089,359.165344 104.185806,353.761414 108.996239,348.556732 
	C119.000267,337.732727 129.192078,327.082306 139.199219,316.261108 
	C144.463425,310.568695 149.457474,304.627228 154.664764,298.880951 
	C156.458893,296.901123 157.138214,295.079834 154.794022,292.339691 
	C145.906296,282.771057 137.079178,273.145111 128.105728,263.657562 
	C123.490044,258.777435 122.830299,259.045959 117.715591,263.727325 
	C108.831039,271.859192 99.713570,279.735992 90.780579,287.815704 
	C83.449738,294.446289 76.245026,301.216370 68.395844,308.248077 
M724.403625,192.284103 
	C724.403625,192.284103 724.100952,192.150040 723.782104,191.442780 
	C718.139771,186.385071 709.582642,188.205719 706.881226,194.999283 
	C706.396606,196.218002 705.503174,197.276337 705.035645,198.499374 
	C702.337646,205.557190 699.128845,212.490387 697.231201,219.762772 
	C695.495789,226.412979 698.151306,228.980606 704.954651,228.988815 
	C720.451843,229.007507 735.948975,228.996384 751.446167,228.994324 
	C759.779541,228.993225 761.172913,227.984665 762.985596,219.918060 
	C765.874390,207.062256 768.634033,194.177444 771.465942,181.224182 
	C773.314026,181.068069 774.914673,180.932846 776.790161,180.774429 
	C775.557251,186.305862 774.223511,191.403168 773.312317,196.574905 
	C771.739685,205.500977 770.319885,214.457977 769.062683,223.433746 
	C768.553040,227.072418 770.406799,229.018204 774.263794,229.006439 
	C789.094299,228.961182 803.929932,229.181183 818.750793,228.800629 
	C821.226562,228.737045 825.042419,226.724579 825.829224,224.683640 
	C828.758545,217.085007 830.863342,209.145370 832.897217,201.235931 
	C833.720764,198.033310 831.539490,196.890717 828.450439,196.976700 
	C823.819397,197.105591 819.182129,197.010223 814.176331,197.010223 
	C814.501404,195.638809 814.709595,194.868256 814.865295,194.087219 
	C817.436584,181.189819 817.434692,181.130188 830.357910,181.039032 
	C833.323669,181.018097 835.729614,180.729294 835.936340,177.091248 
	C836.172485,172.935333 832.774231,173.205048 830.407227,173.117310 
	C823.418213,172.858292 816.403625,172.823410 809.421509,173.162766 
	C807.581848,173.252182 805.222839,174.577988 804.131104,176.082520 
	C799.226135,182.842285 797.940063,190.859253 796.994324,198.939102 
	C796.479004,203.341843 797.907898,205.508682 802.760010,205.066727 
	C806.673279,204.710281 810.644897,204.994537 815.183167,204.994537 
	C814.211792,210.135742 813.685242,214.564453 812.405212,218.763504 
	C811.984009,220.145416 809.661987,221.754852 808.124451,221.846848 
	C802.146912,222.204575 796.133667,221.906311 790.137146,222.026718 
	C786.277344,222.104202 785.537537,219.942993 786.185974,216.861862 
	C788.359253,206.534668 790.723267,196.246994 792.822937,185.905334 
	C793.404297,183.042221 793.995605,180.989929 797.571106,180.720139 
	C798.780701,180.628860 800.300476,178.520401 800.780884,177.042114 
	C801.103149,176.050537 800.023499,173.571136 799.265503,173.432846 
	C795.196106,172.690567 795.864563,170.415253 796.588196,167.551743 
	C797.106262,165.501633 796.862244,163.262421 796.989929,161.109451 
	C797.220642,157.219971 794.895447,156.604294 791.829407,157.199478 
	C789.464722,157.658508 787.149170,158.370911 784.160217,159.137833 
	C784.847473,152.534775 781.126221,151.626816 776.334595,151.983047 
	C774.511658,152.118561 772.664673,152.097000 770.838318,151.987137 
	C766.203186,151.708313 762.502136,153.567642 760.763000,157.720123 
	C758.749695,162.526993 757.199463,167.595688 756.059814,172.687592 
	C752.854431,187.009338 750.186829,201.453644 746.849609,215.742752 
	C745.279724,222.464417 743.267212,223.136703 735.608276,220.934662 
	C736.862244,214.747757 738.287109,208.512558 739.361450,202.217545 
	C740.719604,194.260193 741.892639,186.267197 742.937561,178.262451 
	C743.343811,175.150131 741.817444,173.066910 738.431030,173.043671 
	C730.766296,172.991074 723.095642,172.890198 715.441467,173.180695 
	C714.271179,173.225098 713.176086,175.250519 712.046265,176.359711 
	C713.248718,177.565201 714.268982,179.458603 715.690979,179.835205 
	C718.798035,180.658112 723.402832,179.587891 724.970886,181.395081 
	C726.519043,183.179321 725.087402,187.555267 724.945496,190.793457 
	C724.923767,191.289322 724.807251,191.781036 724.403625,192.284103 
M93.480942,145.001328 
	C73.081436,145.001328 52.681931,145.001328 32.253502,145.001328 
	C32.253502,158.984802 32.253502,172.235596 32.253502,185.387360 
	C32.786953,185.633331 33.074108,185.881287 33.361786,185.881912 
	C56.666630,185.931519 79.971649,185.930771 103.276253,186.028687 
	C106.585442,186.042587 107.053619,184.271469 107.026192,181.573608 
	C106.944939,173.583557 106.998398,165.592148 106.998581,157.601257 
	C106.998863,145.001328 106.998657,145.001328 93.480942,145.001328 
M244.904480,343.159454 
	C243.603668,352.551758 242.298798,361.943542 241.004028,371.336670 
	C240.469498,375.214630 242.447372,376.102570 245.975525,376.058105 
	C258.284302,375.903046 270.599640,375.832001 282.905304,376.081635 
	C287.700958,376.178955 288.948181,373.757141 288.993713,369.755676 
	C289.033478,366.262939 288.857361,362.757355 289.095093,359.279205 
	C289.992371,346.149628 290.947388,333.022919 292.040039,319.908417 
	C292.387970,315.732239 290.514679,314.718140 286.762817,314.963348 
	C274.917450,315.737366 263.054077,316.251312 251.219360,317.150909 
	C250.031921,317.241180 248.227448,319.141724 248.010025,320.422821 
	C246.781189,327.663635 245.949371,334.971771 244.904480,343.159454 
M440.908966,254.223511 
	C439.764557,251.807037 439.158813,248.847504 437.373749,247.076920 
	C432.222107,241.967072 426.595154,237.336411 420.527649,231.962021 
	C417.441223,237.279602 414.490540,241.612259 412.404297,246.327393 
	C411.569977,248.212952 411.732178,251.831512 413.004089,253.130463 
	C418.162201,258.398193 423.955139,263.040588 429.456879,267.977264 
	C431.883301,270.154449 433.653595,269.920410 435.024414,266.900238 
	C436.841248,262.897217 438.710236,258.917847 440.908966,254.223511 
M357.521362,80.987473 
	C359.312744,83.122131 361.014801,85.339973 362.911774,87.376282 
	C369.300964,94.234711 369.192932,94.038414 376.481079,88.325714 
	C379.324646,86.096832 379.143250,84.163315 377.297546,81.885689 
	C374.815613,78.822945 372.318604,75.705666 369.395599,73.096161 
	C367.997589,71.848076 364.769745,70.582840 363.815796,71.285980 
	C360.774536,73.527664 355.380981,74.557266 357.521362,80.987473 
z"/>
<path fill="#2F2E7E" opacity="1.000000" stroke="none" 
	d="
M621.847717,209.234329 
	C620.589722,212.906906 619.181396,216.536102 618.106812,220.261566 
	C616.200806,226.869263 613.640137,228.978180 606.874695,228.983704 
	C591.076477,228.996582 575.278259,229.006805 559.480103,228.976562 
	C554.022034,228.966110 553.466003,228.128387 554.583679,222.784409 
	C555.870056,216.633774 557.015503,210.453659 557.192749,204.024841 
	C554.748291,209.732666 552.210754,215.402863 549.883972,221.158279 
	C547.245239,227.685181 545.493469,228.986069 538.500305,228.987518 
	C530.351746,228.989227 522.200317,228.856079 514.055908,229.039322 
	C509.718323,229.136917 508.342926,227.472733 509.350983,223.309784 
	C510.666199,217.878357 511.770874,212.395966 513.304443,206.368500 
	C514.790710,201.130920 515.938599,196.460327 517.081177,191.731262 
	C517.075928,191.672791 517.168396,191.923798 517.168396,191.923798 
	C517.168396,191.923798 517.176453,191.675949 516.907166,191.927475 
	C515.290283,194.979736 513.756409,197.710556 512.668457,200.608749 
	C512.064087,202.218887 512.203613,204.108261 512.007874,205.871796 
	C509.070679,212.073807 506.234894,218.326691 503.160095,224.459732 
	C501.156097,228.456970 491.816101,231.226212 488.605255,228.402908 
	C487.384644,227.329620 488.080536,224.076767 488.235229,221.224854 
	C490.391327,213.166321 492.422668,205.743118 493.976135,198.221207 
	C495.332184,191.655167 496.149933,184.977951 497.205536,178.349869 
	C497.879700,174.469849 498.444489,170.566849 499.253784,166.715225 
	C500.444000,161.050903 508.481598,155.818573 514.242188,157.227921 
	C515.397949,157.510681 516.980896,159.847946 516.829468,161.043106 
	C515.983948,167.714920 514.691040,174.331436 513.497192,180.957123 
	C512.984863,183.800430 512.342407,186.620300 512.518005,189.722321 
	C514.373108,185.764664 516.068176,181.721512 518.125427,177.871872 
	C520.490662,173.445801 529.824768,170.647079 533.619568,173.719467 
	C535.174377,174.978302 534.863892,178.541031 534.935242,181.652252 
	C532.553467,190.602356 530.596558,198.946594 528.739136,207.312943 
	C527.646301,212.235168 526.711731,217.192520 525.628479,222.514984 
	C528.873840,222.514984 531.287781,222.514984 533.851135,222.514984 
	C536.548096,209.846420 539.233459,197.383636 541.793274,184.895111 
	C541.980591,183.980957 541.259155,182.880539 540.960205,181.866714 
	C541.331421,180.102829 541.361023,178.157318 542.173889,176.628235 
	C542.926208,175.213150 544.401733,173.430313 545.760925,173.238037 
	C549.177307,172.754730 552.787842,172.660934 556.149719,173.303787 
	C557.337708,173.530945 558.811646,176.361511 558.781677,177.977966 
	C558.724792,181.039169 557.675232,184.081924 556.721802,187.714233 
	C555.145813,192.280182 553.886169,196.264236 552.626526,200.248306 
	C553.165833,200.428146 553.705078,200.607986 554.244385,200.787811 
	C555.774109,196.560638 557.303894,192.333450 558.833618,188.106262 
	C559.854126,185.517487 560.709045,182.847824 561.926514,180.355240 
	C565.433594,173.175095 569.983276,170.916962 577.504822,173.317459 
	C579.057861,173.813126 580.599792,176.921036 580.672668,178.879837 
	C580.785217,181.902100 579.625854,184.971741 578.619995,188.506348 
	C576.922974,193.800400 575.442383,198.571030 574.342957,203.427948 
	C572.936707,209.640488 571.837708,215.922577 570.546387,222.479034 
	C574.148865,222.479034 576.896057,222.479034 579.430359,222.479034 
	C580.245300,217.937546 581.035706,213.714523 581.755493,209.479507 
	C582.864685,202.953705 583.925415,196.419678 585.006714,189.889130 
	C586.801208,185.036743 588.234985,179.997223 590.598938,175.440247 
	C591.358032,173.976807 594.551025,173.198669 596.667725,173.120987 
	C604.125793,172.847305 611.600403,172.970566 619.067993,173.028839 
	C623.971741,173.067123 626.008118,175.032166 625.936279,179.929581 
	C625.890686,183.035904 625.355164,186.135040 624.796448,189.921356 
	C622.610657,196.432938 619.575378,202.103958 621.951538,208.725662 
	C621.923035,208.896408 621.847717,209.234329 621.847717,209.234329 
M608.152649,195.772537 
	C609.233643,190.633270 610.314575,185.494019 611.395569,180.354691 
	C602.967957,178.755081 602.528076,179.041473 601.009888,186.329834 
	C598.813538,196.873825 596.581421,207.410461 594.417236,217.961044 
	C594.137146,219.326614 594.171326,220.756653 594.064758,222.096268 
	C601.825562,223.502045 602.596924,222.975372 603.998718,216.062500 
	C605.314636,209.572769 606.694580,203.096024 608.152649,195.772537 
z"/>
<path fill="#2D2C7D" opacity="1.000000" stroke="none" 
	d="
M724.734619,192.274673 
	C724.807251,191.781036 724.923767,191.289322 724.945496,190.793457 
	C725.087402,187.555267 726.519043,183.179321 724.970886,181.395081 
	C723.402832,179.587891 718.798035,180.658112 715.690979,179.835205 
	C714.268982,179.458603 713.248718,177.565201 712.046265,176.359711 
	C713.176086,175.250519 714.271179,173.225098 715.441467,173.180695 
	C723.095642,172.890198 730.766296,172.991074 738.431030,173.043671 
	C741.817444,173.066910 743.343811,175.150131 742.937561,178.262451 
	C741.892639,186.267197 740.719604,194.260193 739.361450,202.217545 
	C738.287109,208.512558 736.862244,214.747757 735.608276,220.934662 
	C743.267212,223.136703 745.279724,222.464417 746.849609,215.742752 
	C750.186829,201.453644 752.854431,187.009338 756.059814,172.687592 
	C757.199463,167.595688 758.749695,162.526993 760.763000,157.720123 
	C762.502136,153.567642 766.203186,151.708313 770.838318,151.987137 
	C772.664673,152.097000 774.511658,152.118561 776.334595,151.983047 
	C781.126221,151.626816 784.847473,152.534775 784.160217,159.137833 
	C787.149170,158.370911 789.464722,157.658508 791.829407,157.199478 
	C794.895447,156.604294 797.220642,157.219971 796.989929,161.109451 
	C796.862244,163.262421 797.106262,165.501633 796.588196,167.551743 
	C795.864563,170.415253 795.196106,172.690567 799.265503,173.432846 
	C800.023499,173.571136 801.103149,176.050537 800.780884,177.042114 
	C800.300476,178.520401 798.780701,180.628860 797.571106,180.720139 
	C793.995605,180.989929 793.404297,183.042221 792.822937,185.905334 
	C790.723267,196.246994 788.359253,206.534668 786.185974,216.861862 
	C785.537537,219.942993 786.277344,222.104202 790.137146,222.026718 
	C796.133667,221.906311 802.146912,222.204575 808.124451,221.846848 
	C809.661987,221.754852 811.984009,220.145416 812.405212,218.763504 
	C813.685242,214.564453 814.211792,210.135742 815.183167,204.994537 
	C810.644897,204.994537 806.673279,204.710281 802.760010,205.066727 
	C797.907898,205.508682 796.479004,203.341843 796.994324,198.939102 
	C797.940063,190.859253 799.226135,182.842285 804.131104,176.082520 
	C805.222839,174.577988 807.581848,173.252182 809.421509,173.162766 
	C816.403625,172.823410 823.418213,172.858292 830.407227,173.117310 
	C832.774231,173.205048 836.172485,172.935333 835.936340,177.091248 
	C835.729614,180.729294 833.323669,181.018097 830.357910,181.039032 
	C817.434692,181.130188 817.436584,181.189819 814.865295,194.087219 
	C814.709595,194.868256 814.501404,195.638809 814.176331,197.010223 
	C819.182129,197.010223 823.819397,197.105591 828.450439,196.976700 
	C831.539490,196.890717 833.720764,198.033310 832.897217,201.235931 
	C830.863342,209.145370 828.758545,217.085007 825.829224,224.683640 
	C825.042419,226.724579 821.226562,228.737045 818.750793,228.800629 
	C803.929932,229.181183 789.094299,228.961182 774.263794,229.006439 
	C770.406799,229.018204 768.553040,227.072418 769.062683,223.433746 
	C770.319885,214.457977 771.739685,205.500977 773.312317,196.574905 
	C774.223511,191.403168 775.557251,186.305862 776.790161,180.774429 
	C774.914673,180.932846 773.314026,181.068069 771.465942,181.224182 
	C768.634033,194.177444 765.874390,207.062256 762.985596,219.918060 
	C761.172913,227.984665 759.779541,228.993225 751.446167,228.994324 
	C735.948975,228.996384 720.451843,229.007507 704.954651,228.988815 
	C698.151306,228.980606 695.495789,226.412979 697.231201,219.762772 
	C699.128845,212.490387 702.337646,205.557190 705.035645,198.499374 
	C705.503174,197.276337 706.396606,196.218002 706.881226,194.999283 
	C709.582642,188.205719 718.139771,186.385071 723.846924,192.127533 
	C718.680420,202.201859 714.232178,211.889954 712.103394,222.818893 
	C715.116882,222.645905 719.147400,222.234879 719.440491,220.962708 
	C721.621826,211.496033 723.061890,201.858566 724.734619,192.274673 
M772.146606,173.134537 
	C773.683716,173.542480 775.220764,173.950424 776.734131,174.352081 
	C776.901245,175.865738 777.051636,177.227905 777.202026,178.590073 
	C777.541565,178.644226 777.881042,178.698395 778.220581,178.752548 
	C779.716675,172.528519 781.212769,166.304489 782.700500,160.115234 
	C774.656433,159.561172 774.419189,159.729187 772.858337,167.458557 
	C772.532532,169.071716 772.245667,170.692734 772.146606,173.134537 
z"/>
<path fill="#203B76" opacity="1.000000" stroke="none" 
	d="
M68.984390,307.924591 
	C76.245026,301.216370 83.449738,294.446289 90.780579,287.815704 
	C99.713570,279.735992 108.831039,271.859192 117.715591,263.727325 
	C122.830299,259.045959 123.490044,258.777435 128.105728,263.657562 
	C137.079178,273.145111 145.906296,282.771057 154.777100,292.962830 
	C153.867874,294.570282 153.049911,295.636230 152.072021,296.526489 
	C140.140305,307.389313 128.220276,318.265503 116.220474,329.052856 
	C110.581505,334.122101 104.777267,339.007507 98.883293,344.119019 
	C89.243195,333.454285 79.947487,323.275604 70.826569,312.942657 
	C69.727776,311.697845 69.575409,309.617615 68.984390,307.924591 
z"/>
<path fill="#E21E26" opacity="1.000000" stroke="none" 
	d="
M93.975952,145.001328 
	C106.998657,145.001328 106.998863,145.001328 106.998581,157.601257 
	C106.998398,165.592148 106.944939,173.583557 107.026192,181.573608 
	C107.053619,184.271469 106.585442,186.042587 103.276253,186.028687 
	C79.971649,185.930771 56.666630,185.931519 33.361786,185.881912 
	C33.074108,185.881287 32.786953,185.633331 32.253502,185.387360 
	C32.253502,172.235596 32.253502,158.984802 32.253502,145.001328 
	C52.681931,145.001328 73.081436,145.001328 93.975952,145.001328 
z"/>
<path fill="#E21E26" opacity="1.000000" stroke="none" 
	d="
M244.943390,342.708221 
	C245.949371,334.971771 246.781189,327.663635 248.010025,320.422821 
	C248.227448,319.141724 250.031921,317.241180 251.219360,317.150909 
	C263.054077,316.251312 274.917450,315.737366 286.762817,314.963348 
	C290.514679,314.718140 292.387970,315.732239 292.040039,319.908417 
	C290.947388,333.022919 289.992371,346.149628 289.095093,359.279205 
	C288.857361,362.757355 289.033478,366.262939 288.993713,369.755676 
	C288.948181,373.757141 287.700958,376.178955 282.905304,376.081635 
	C270.599640,375.832001 258.284302,375.903046 245.975525,376.058105 
	C242.447372,376.102570 240.469498,375.214630 241.004028,371.336670 
	C242.298798,361.943542 243.603668,352.551758 244.943390,342.708221 
z"/>
<path fill="#5254A3" opacity="1.000000" stroke="none" 
	d="
M68.690117,308.086334 
	C69.575409,309.617615 69.727776,311.697845 70.826569,312.942657 
	C79.947487,323.275604 89.243195,333.454285 98.883293,344.119019 
	C104.777267,339.007507 110.581505,334.122101 116.220474,329.052856 
	C128.220276,318.265503 140.140305,307.389313 152.072021,296.526489 
	C153.049911,295.636230 153.867874,294.570282 154.895599,293.276917 
	C157.138214,295.079834 156.458893,296.901123 154.664764,298.880951 
	C149.457474,304.627228 144.463425,310.568695 139.199219,316.261108 
	C129.192078,327.082306 119.000267,337.732727 108.996239,348.556732 
	C104.185806,353.761414 99.588089,359.165344 94.967888,364.542511 
	C90.724838,369.480713 89.322823,369.393066 84.930840,364.499207 
	C74.774940,353.182739 64.514832,341.959106 54.225643,330.763367 
	C50.288803,326.479675 50.191208,325.077301 54.508560,321.012054 
	C59.085667,316.702209 63.762543,312.498260 68.690117,308.086334 
z"/>
<path fill="#302F7F" opacity="1.000000" stroke="none" 
	d="
M446.189026,218.855896 
	C444.517395,226.420059 441.444580,228.978638 434.007904,228.983643 
	C427.354584,228.988113 420.700897,229.025742 414.048035,228.970230 
	C408.510620,228.924026 406.362396,227.336731 407.164642,221.837036 
	C409.132660,208.345383 411.391846,194.856018 414.470734,181.583038 
	C416.083313,174.631287 419.708313,173.020416 427.116608,173.016098 
	C433.270935,173.012527 439.425446,172.987030 445.579529,173.024216 
	C451.709930,173.061249 453.732391,175.121918 453.584534,182.024780 
	C452.130798,187.772324 450.859009,192.872314 449.975800,198.038727 
	C449.402191,201.393906 448.024536,202.866760 444.418915,202.716293 
	C438.126709,202.453690 431.815643,202.643143 425.147522,202.643143 
	C423.889374,209.237015 422.670898,215.622925 421.454987,221.995377 
	C429.387146,223.510422 429.591217,223.279541 431.580078,216.499069 
	C431.995209,215.083893 433.468140,213.097961 434.648926,212.951675 
	C438.362915,212.491577 442.169922,212.782242 446.189026,212.782242 
	C446.189026,215.226517 446.189026,217.041214 446.189026,218.855896 
M427.788696,196.206192 
	C430.405823,196.206192 433.022919,196.206192 435.788727,196.206192 
	C436.904755,190.714859 437.943481,185.603989 438.976562,180.520828 
	C430.846741,178.629135 430.256439,178.960159 428.865570,185.906754 
	C428.217010,189.145782 427.662567,192.403687 427.788696,196.206192 
z"/>
<path fill="#2D2C7D" opacity="1.000000" stroke="none" 
	d="
M621.887939,209.626251 
	C621.847717,209.234329 621.923035,208.896408 622.281799,208.503967 
	C623.735779,202.102448 624.831055,196.093353 625.926331,190.084259 
	C626.711609,187.233276 627.390869,184.347809 628.304138,181.538437 
	C630.259460,175.523636 633.764221,173.020950 640.046387,173.006821 
	C646.850342,172.991516 653.655090,173.066681 660.458069,172.985703 
	C665.058533,172.930954 667.372803,175.122162 666.947571,179.646881 
	C666.394531,185.531174 665.507996,191.384109 664.869141,197.645462 
	C664.973389,198.040375 665.009216,198.004745 665.009216,198.004745 
	C661.350281,198.001526 657.672302,197.760422 654.037048,198.052368 
	C648.929810,198.462540 648.564636,195.399521 649.093872,191.735672 
	C649.578186,188.382950 650.396484,185.078461 651.095337,181.615204 
	C647.479370,180.633713 644.892883,180.498428 644.083191,184.431808 
	C641.754761,195.742004 639.407593,207.048416 637.126221,218.368088 
	C636.940125,219.291672 637.197449,220.304596 637.249634,221.292633 
	C641.227112,223.063293 643.529663,221.136719 643.758545,217.750092 
	C644.102295,212.663376 646.822144,211.625198 651.055725,212.001160 
	C651.221008,212.015854 651.404480,211.957809 651.553101,212.009537 
	C654.684631,213.099609 660.211670,209.180176 660.757996,215.355515 
	C661.367371,222.243393 655.826416,228.793610 650.167664,228.940536 
	C642.840820,229.130814 635.505188,229.029556 628.173828,228.984055 
	C622.506409,228.948868 619.853638,226.446564 620.100342,220.708099 
	C620.254272,217.125214 621.288818,213.580185 621.887939,209.626251 
z"/>
<path fill="#2D2C7D" opacity="1.000000" stroke="none" 
	d="
M345.962921,202.044662 
	C344.615265,210.171204 343.460632,218.338974 341.742401,226.386383 
	C341.432434,227.838058 338.935822,229.508621 337.218658,229.823532 
	C334.156189,230.385193 330.918030,230.011215 327.753632,229.990005 
	C321.766510,229.949890 320.037476,227.837463 321.163666,221.935562 
	C322.045410,217.314850 322.961823,212.700760 323.975800,207.504669 
	C319.597565,213.683624 315.757721,219.437012 311.524475,224.884705 
	C310.154999,226.647034 307.487244,228.928391 305.889679,228.606720 
	C303.797211,228.185410 301.456818,225.743362 300.491211,223.599411 
	C297.807617,217.640717 295.779907,211.386642 293.609406,205.561447 
	C292.412811,212.318604 291.191528,219.268311 289.948364,226.214111 
	C289.271393,229.996552 286.268341,230.677872 283.530273,229.781723 
	C281.716003,229.187912 279.079071,226.575043 279.255615,225.174194 
	C280.324188,216.694473 282.069641,208.298248 283.686890,199.892975 
	C283.814453,199.229996 284.686890,198.710327 285.763763,198.314545 
	C287.531860,198.856110 288.749359,199.207184 290.429504,199.466476 
	C296.186737,199.361786 301.481689,199.305328 306.775757,199.350296 
	C310.715790,199.383743 315.420166,197.980652 315.723175,203.489426 
	C318.239746,201.991959 320.403473,199.678909 322.711456,199.524689 
	C329.454346,199.074097 336.254761,199.484894 343.255798,199.721146 
	C344.306946,200.604355 345.134949,201.324509 345.962921,202.044662 
z"/>
<path fill="#2E2D7D" opacity="1.000000" stroke="none" 
	d="
M664.961365,198.062622 
	C666.326355,192.217422 667.524658,186.299454 669.162842,180.505829 
	C669.881226,177.965088 671.098877,174.010468 672.784729,173.607864 
	C676.840210,172.639343 681.338867,173.144775 685.570679,173.712128 
	C686.198303,173.796265 686.897705,177.526566 686.610413,179.425720 
	C685.903198,184.099945 684.640808,188.690140 684.064575,193.407578 
	C686.395691,188.239655 688.541748,182.977417 691.113159,177.931915 
	C693.412109,173.421051 702.552246,170.869080 706.698242,173.615601 
	C707.890076,174.405136 708.868347,176.714691 708.683350,178.166656 
	C708.060669,183.054245 706.992188,187.898422 705.854370,192.702393 
	C705.062988,196.043762 703.238403,198.311493 699.228943,198.038605 
	C695.789307,197.804489 692.321106,197.990097 688.273193,197.990097 
	C684.736633,205.592667 680.745972,213.745026 677.140015,222.064133 
	C674.474670,228.213455 667.668945,231.640671 662.012085,228.538528 
	C660.710510,227.824738 660.244995,224.232803 660.569641,222.148361 
	C661.785461,214.340958 663.488403,206.609421 665.008972,198.427094 
	C665.009216,198.004745 664.973389,198.040375 664.961365,198.062622 
z"/>
<path fill="#302F7F" opacity="1.000000" stroke="none" 
	d="
M455.826019,182.135437 
	C458.840881,174.052780 460.259979,173.018890 468.369965,173.016006 
	C475.021057,173.013641 481.672760,173.072556 488.322968,172.996353 
	C492.011780,172.954086 494.274719,174.526566 494.636902,178.742935 
	C493.543610,184.200226 492.943939,189.132126 491.968811,193.988617 
	C491.749969,195.078400 490.281586,196.633865 489.278625,196.721741 
	C485.552063,197.048218 481.779663,196.851898 477.401184,196.851898 
	C478.476257,190.807114 479.412720,185.541733 480.346710,180.290298 
	C471.919678,178.933228 471.675690,179.066788 470.205353,186.085083 
	C467.959686,196.804245 465.672180,207.516113 463.621948,218.272903 
	C463.365845,219.616394 464.663422,222.528168 464.870941,222.493561 
	C467.276581,222.092361 469.872192,221.666550 471.855164,220.380386 
	C472.862000,219.727371 472.494751,217.207932 473.189514,215.741028 
	C473.734955,214.589340 474.893616,213.001694 475.889801,212.918091 
	C479.786224,212.591141 483.726318,212.784546 487.624268,212.784546 
	C487.449554,215.960617 487.314850,218.409882 487.180115,220.859146 
	C484.887604,227.525589 480.180359,229.726395 473.325104,229.082794 
	C468.073273,228.589722 462.738037,228.986710 457.439911,228.984207 
	C448.946259,228.980209 447.956360,227.991455 448.365417,218.947678 
	C449.700256,213.977585 450.907013,209.727509 451.736115,205.404984 
	C453.219421,197.671494 454.475159,189.894333 455.826019,182.135437 
z"/>
<path fill="#4D648D" opacity="1.000000" stroke="none" 
	d="
M339.969147,312.820160 
	C346.661652,307.352509 353.264771,301.770020 360.082550,296.463318 
	C363.754150,293.605499 365.232574,294.221161 366.904663,298.883301 
	C370.646240,309.315613 374.285248,319.784698 377.582703,330.673767 
	C369.697388,338.180634 362.195374,345.252533 354.160583,352.826691 
	C351.964813,346.296143 350.100250,340.471527 348.047058,334.714203 
	C345.434296,327.387695 342.668793,320.115662 339.969147,312.820160 
z"/>
<path fill="#2D2C7D" opacity="1.000000" stroke="none" 
	d="
M276.959625,204.047073 
	C275.813324,211.015808 274.926086,218.040497 273.437164,224.935242 
	C272.285950,230.266159 266.285370,232.137817 261.288391,228.710892 
	C256.548004,225.459930 252.078827,221.785095 247.678360,218.073746 
	C241.622116,212.965927 235.742645,207.648514 229.407547,202.218475 
	C229.027664,202.016037 228.857651,201.844955 228.910004,201.452408 
	C230.180984,200.483643 231.398178,199.410568 232.618469,199.407043 
	C247.089310,199.365173 261.560608,199.482880 275.984253,199.900543 
	C276.277679,201.510620 276.618652,202.778854 276.959625,204.047073 
z"/>
<path fill="#2D2C7D" opacity="1.000000" stroke="none" 
	d="
M222.165070,187.175385 
	C223.634674,178.432037 224.773895,169.614624 226.710541,160.975967 
	C227.708221,156.525726 234.315369,155.131073 238.766296,158.342651 
	C244.103012,162.193390 249.102585,166.521179 254.153839,170.754913 
	C259.085876,174.888718 263.899078,179.164322 268.858398,184.115479 
	C267.647736,185.547684 266.352264,186.826157 265.037109,186.846695 
	C250.748199,187.069839 236.456223,187.095734 222.165070,187.175385 
z"/>
<path fill="#2D2C7D" opacity="1.000000" stroke="none" 
	d="
M387.920044,188.060272 
	C383.564453,187.194489 384.918121,183.738785 385.213226,181.252838 
	C385.752960,176.705795 386.888458,172.229462 387.919037,166.994537 
	C385.233398,166.994537 382.960663,166.949127 380.690460,167.005844 
	C377.726898,167.079880 374.993408,166.377640 375.185333,162.892090 
	C375.354401,159.821259 376.825836,157.056824 380.650024,157.030670 
	C387.303314,156.985168 393.957031,157.006485 400.610565,157.003479 
	C406.266113,157.000916 411.922638,157.066467 417.576904,156.980713 
	C421.089752,156.927444 423.939911,157.437805 423.995789,161.886551 
	C424.050446,166.236099 421.453522,167.154892 417.803070,167.015533 
	C415.165314,166.914856 412.520630,166.995895 409.835632,166.995895 
	C408.069641,174.131485 406.394257,180.901016 404.139343,187.518463 
	C398.346527,187.597672 393.133301,187.828979 387.920044,188.060272 
z"/>
<path fill="#796BAE" opacity="1.000000" stroke="none" 
	d="
M339.647827,313.038818 
	C342.668793,320.115662 345.434296,327.387695 348.047058,334.714203 
	C350.100250,340.471527 351.964813,346.296143 354.160583,352.826691 
	C362.195374,345.252533 369.697388,338.180634 377.532471,331.053253 
	C381.630402,340.808685 383.301758,341.842346 374.759705,349.877838 
	C368.495361,355.770630 362.911957,362.381439 356.904999,368.555481 
	C352.525635,373.056702 351.389282,372.726990 349.916077,366.814667 
	C345.979645,351.017059 341.994171,335.230469 338.273804,319.381805 
	C337.837921,317.525055 338.938293,315.307709 339.647827,313.038818 
z"/>
<path fill="#E9F2FA" opacity="1.000000" stroke="none" 
	d="
M487.376221,220.869629 
	C487.314850,218.409882 487.449554,215.960617 487.624268,212.784546 
	C483.726318,212.784546 479.786224,212.591141 475.889801,212.918091 
	C474.893616,213.001694 473.734955,214.589340 473.189514,215.741028 
	C472.494751,217.207932 472.862000,219.727371 471.855164,220.380386 
	C469.872192,221.666550 467.276581,222.092361 464.870941,222.493561 
	C464.663422,222.528168 463.365845,219.616394 463.621948,218.272903 
	C465.672180,207.516113 467.959686,196.804245 470.205353,186.085083 
	C471.675690,179.066788 471.919678,178.933228 480.346710,180.290298 
	C479.412720,185.541733 478.476257,190.807114 477.401184,196.851898 
	C481.779663,196.851898 485.552063,197.048218 489.278625,196.721741 
	C490.281586,196.633865 491.749969,195.078400 491.968811,193.988617 
	C492.943939,189.132126 493.543610,184.200226 494.670410,179.118073 
	C495.682678,178.941284 496.303467,178.941986 497.064880,178.646271 
	C496.149933,184.977951 495.332184,191.655167 493.976135,198.221207 
	C492.422668,205.743118 490.391327,213.166321 488.250946,220.832367 
	C487.934326,221.032333 487.572296,220.880096 487.376221,220.869629 
z"/>
<path fill="#2D2C7D" opacity="1.000000" stroke="none" 
	d="
M402.012756,197.986481 
	C402.011292,200.854477 402.349274,203.772141 401.938324,206.580215 
	C401.056458,212.606644 399.857788,218.590591 398.652222,224.564362 
	C397.916351,228.210724 396.065796,230.487411 391.774048,230.060394 
	C388.477692,229.732422 385.123108,230.009537 381.794830,229.977448 
	C378.153503,229.942337 376.560730,227.870071 377.124298,224.488068 
	C378.287628,217.506592 379.715363,210.569046 381.046265,203.615723 
	C381.658691,200.416077 383.313782,198.858521 386.869965,198.919296 
	C391.639984,199.000809 396.420288,198.478973 401.623444,198.117996 
	C402.050690,198.019836 402.012756,197.986481 402.012756,197.986481 
z"/>
<path fill="#E21E26" opacity="1.000000" stroke="none" 
	d="
M440.732910,254.575897 
	C438.710236,258.917847 436.841248,262.897217 435.024414,266.900238 
	C433.653595,269.920410 431.883301,270.154449 429.456879,267.977264 
	C423.955139,263.040588 418.162201,258.398193 413.004089,253.130463 
	C411.732178,251.831512 411.569977,248.212952 412.404297,246.327393 
	C414.490540,241.612259 417.441223,237.279602 420.527649,231.962021 
	C426.595154,237.336411 432.222107,241.967072 437.373749,247.076920 
	C439.158813,248.847504 439.764557,251.807037 440.732910,254.575897 
z"/>
<path fill="#2D2C7D" opacity="1.000000" stroke="none" 
	d="
M288.919922,188.059769 
	C288.064789,186.792908 286.316925,185.378433 286.498077,184.282928 
	C287.759827,176.652527 289.186371,169.027298 291.125763,161.547073 
	C291.591064,159.752380 293.968475,157.720520 295.854187,157.198730 
	C298.685516,156.415283 301.807922,156.674347 303.042480,160.576141 
	C305.435638,168.139572 308.147156,175.603241 310.470490,183.186783 
	C310.868164,184.484818 309.993835,186.172546 309.131714,187.520172 
	C302.010834,187.593307 295.465363,187.826538 288.919922,188.059769 
z"/>
<path fill="#3B3985" opacity="1.000000" stroke="none" 
	d="
M289.966827,199.558243 
	C288.749359,199.207184 287.531860,198.856110 286.136017,198.270996 
	C286.108856,197.974533 286.306885,197.951660 286.400635,197.840714 
	C286.550751,197.662964 286.631775,197.426849 286.742004,197.215408 
	C284.088074,197.101685 281.975159,195.898026 283.254333,193.150208 
	C284.073090,191.391449 286.477295,190.370804 288.826294,189.312164 
	C296.004425,189.378250 302.527069,189.151428 309.049713,188.924606 
	C316.363434,188.956665 323.677155,188.988708 331.717468,189.321747 
	C337.933807,189.704468 343.423584,189.786209 348.913361,189.867950 
	C350.924683,193.043076 350.315247,195.589478 347.372192,197.939117 
	C346.559082,198.588287 346.515167,200.200912 346.040619,201.708069 
	C345.134949,201.324509 344.306946,200.604355 343.328400,199.241302 
	C342.536743,198.041916 341.898315,197.003036 341.254150,196.999451 
	C324.931366,196.908340 308.607635,196.889496 292.285706,197.036072 
	C291.505280,197.043076 290.739441,198.680237 289.966827,199.558243 
z"/>
<path fill="#E9F0F8" opacity="1.000000" stroke="none" 
	d="
M455.568970,182.230804 
	C454.475159,189.894333 453.219421,197.671494 451.736115,205.404984 
	C450.907013,209.727509 449.700256,213.977585 448.414551,218.507202 
	C447.675537,218.723083 447.185638,218.692078 446.442383,218.758484 
	C446.189026,217.041214 446.189026,215.226517 446.189026,212.782242 
	C442.169922,212.782242 438.362915,212.491577 434.648926,212.951675 
	C433.468140,213.097961 431.995209,215.083893 431.580078,216.499069 
	C429.591217,223.279541 429.387146,223.510422 421.454987,221.995377 
	C422.670898,215.622925 423.889374,209.237015 425.147522,202.643143 
	C431.815643,202.643143 438.126709,202.453690 444.418915,202.716293 
	C448.024536,202.866760 449.402191,201.393906 449.975800,198.038727 
	C450.859009,192.872314 452.130798,187.772324 453.534851,182.440048 
	C454.325256,182.266006 454.818573,182.296097 455.568970,182.230804 
z"/>
<path fill="#56536C" opacity="1.000000" stroke="none" 
	d="
M314.910370,29.110939 
	C317.832672,27.501375 320.052795,28.637753 321.509766,31.186180 
	C325.185547,37.615356 328.747131,44.112911 332.179535,50.674580 
	C332.668915,51.610138 332.613983,53.855015 332.085907,54.137253 
	C327.585999,56.542271 322.918396,58.633545 318.380157,60.336494 
	C314.540009,51.853130 310.620728,43.852058 306.983734,36.427246 
	C309.910400,33.725914 312.410400,31.418427 314.910370,29.110939 
z"/>
<path fill="#3D3B86" opacity="1.000000" stroke="none" 
	d="
M277.153564,203.707336 
	C276.618652,202.778854 276.277679,201.510620 276.050385,199.421432 
	C275.519928,198.046539 274.878662,197.012848 274.231262,197.009018 
	C258.907043,196.918381 243.581772,196.900620 228.258438,197.050064 
	C227.487335,197.057587 226.732010,198.686279 225.703995,199.668579 
	C224.274628,199.199615 223.110626,198.622223 221.946609,198.044846 
	C222.096344,197.983154 222.288300,197.959625 222.386337,197.851196 
	C222.549210,197.671005 222.651749,197.436279 222.779709,197.224548 
	C216.545654,194.675781 216.433578,193.966507 222.192749,189.468689 
	C240.372543,189.691849 257.884705,189.744675 275.396851,189.735855 
	C276.275146,189.735413 277.153168,189.200943 278.031311,188.915131 
	C282.214203,189.846298 281.134369,193.033142 280.511261,195.544449 
	C279.840607,198.247406 278.433380,200.767639 277.153564,203.707336 
z"/>
<path fill="#E11F27" opacity="1.000000" stroke="none" 
	d="
M244.001694,15.150290 
	C246.742889,14.786837 249.489685,14.108188 252.223541,14.156952 
	C254.522751,14.197964 257.874573,14.306217 258.915009,15.731674 
	C263.727600,22.325119 267.895905,29.388815 272.768829,37.026688 
	C267.033447,38.823029 262.318756,40.299675 257.009613,41.561783 
	C252.013412,33.681168 247.560043,26.043535 243.296890,18.301165 
	C242.907776,17.594492 243.737793,16.216530 244.001694,15.150290 
z"/>
<path fill="#2D2C7D" opacity="1.000000" stroke="none" 
	d="
M331.113892,187.854080 
	C328.384735,186.928207 327.981659,185.299942 329.584320,182.985184 
	C334.922394,175.275162 340.098389,167.445786 345.686371,159.922043 
	C346.781830,158.447174 349.682495,157.119629 351.326050,157.510330 
	C354.165344,158.185242 354.030182,160.762802 353.377258,163.592087 
	C351.645508,171.095993 350.434540,178.720062 348.477051,186.681442 
	C342.329803,187.329071 336.721832,187.591568 331.113892,187.854080 
z"/>
<path fill="#55516C" opacity="1.000000" stroke="none" 
	d="
M425.028625,128.929626 
	C423.068237,131.732056 421.236755,134.637085 419.110992,137.307861 
	C417.004333,139.954697 414.457916,140.276566 412.105255,137.553650 
	C409.015991,133.978210 406.054840,130.292084 402.967773,125.892578 
	C402.471008,118.423141 407.741791,114.904480 410.941406,109.371994 
	C414.934845,114.231918 418.480316,118.310196 421.730316,122.611687 
	C423.142761,124.481178 423.947754,126.809631 425.028625,128.929626 
z"/>
<path fill="#E4EFF9" opacity="1.000000" stroke="none" 
	d="
M540.535400,181.931549 
	C541.259155,182.880539 541.980591,183.980957 541.793274,184.895111 
	C539.233459,197.383636 536.548096,209.846420 533.851135,222.514984 
	C531.287781,222.514984 528.873840,222.514984 525.628479,222.514984 
	C526.711731,217.192520 527.646301,212.235168 528.739136,207.312943 
	C530.596558,198.946594 532.553467,190.602356 534.718872,181.955170 
	C536.682983,181.773148 538.396851,181.884766 540.535400,181.931549 
z"/>
<path fill="#7B6AAC" opacity="1.000000" stroke="none" 
	d="
M243.570511,15.102541 
	C243.737793,16.216530 242.907776,17.594492 243.296890,18.301165 
	C247.560043,26.043535 252.013412,33.681168 256.624542,41.597931 
	C249.302719,45.423630 248.099121,45.167465 243.794693,38.432182 
	C240.106506,32.661110 236.546249,26.806778 233.011429,20.939846 
	C231.388000,18.245323 231.506592,16.245697 235.369675,15.976008 
	C237.968338,15.794594 240.550034,15.370381 243.570511,15.102541 
z"/>
<path fill="#2D2C7D" opacity="1.000000" stroke="none" 
	d="
M270.992249,183.801208 
	C272.358826,176.021835 273.652557,168.228653 275.125305,160.469437 
	C275.776276,157.039780 278.541229,156.968170 281.346436,156.989212 
	C284.233856,157.010895 285.360992,158.594696 284.946136,161.123718 
	C283.536346,169.718033 281.970673,178.287247 280.372559,186.848892 
	C280.289734,187.292725 279.354492,187.577438 278.211914,187.675369 
	C274.928314,187.078323 272.016785,187.167191 270.992249,183.801208 
z"/>
<path fill="#2D2C7D" opacity="1.000000" stroke="none" 
	d="
M221.581360,198.083664 
	C223.110626,198.622223 224.274628,199.199615 226.008179,199.588043 
	C227.337708,200.214371 228.097687,201.029663 228.857651,201.844955 
	C228.857651,201.844955 229.027664,202.016037 229.113586,202.100677 
	C227.773651,209.936783 226.402359,217.698822 224.898407,225.435074 
	C224.170090,229.181488 221.060486,229.566299 218.332748,228.775131 
	C216.930313,228.368362 214.952576,225.772720 215.191391,224.547607 
	C216.919083,215.684540 219.146774,206.918945 221.581360,198.083664 
z"/>
<path fill="#E21E26" opacity="1.000000" stroke="none" 
	d="
M357.307251,80.700943 
	C355.380981,74.557266 360.774536,73.527664 363.815796,71.285980 
	C364.769745,70.582840 367.997589,71.848076 369.395599,73.096161 
	C372.318604,75.705666 374.815613,78.822945 377.297546,81.885689 
	C379.143250,84.163315 379.324646,86.096832 376.481079,88.325714 
	C369.192932,94.038414 369.300964,94.234711 362.911774,87.376282 
	C361.014801,85.339973 359.312744,83.122131 357.307251,80.700943 
z"/>
<path fill="#E0EEF9" opacity="1.000000" stroke="none" 
	d="
M584.610596,189.934814 
	C583.925415,196.419678 582.864685,202.953705 581.755493,209.479507 
	C581.035706,213.714523 580.245300,217.937546 579.430359,222.479034 
	C576.896057,222.479034 574.148865,222.479034 570.546387,222.479034 
	C571.837708,215.922577 572.936707,209.640488 574.342957,203.427948 
	C575.442383,198.571030 576.922974,193.800400 578.629395,188.912445 
	C580.754578,189.215790 582.484497,189.598145 584.610596,189.934814 
z"/>
<path fill="#B2C8D4" opacity="1.000000" stroke="none" 
	d="
M314.585785,28.957785 
	C312.410400,31.418427 309.910400,33.725914 306.983734,36.427246 
	C310.620728,43.852058 314.540009,51.853130 318.175690,60.019318 
	C314.138672,60.550983 311.835297,58.435673 310.154633,55.481594 
	C307.047821,50.020882 304.077911,44.482384 300.981537,39.015633 
	C299.589172,36.557365 299.388306,34.329842 301.949677,32.593903 
	C304.615784,30.786987 307.268860,28.877077 310.174377,27.554243 
	C311.145569,27.112078 312.877197,28.340080 314.585785,28.957785 
z"/>
<path fill="#6E8AC3" opacity="1.000000" stroke="none" 
	d="
M425.341339,128.779449 
	C423.947754,126.809631 423.142761,124.481178 421.730316,122.611687 
	C418.480316,118.310196 414.934845,114.231918 410.941406,109.371994 
	C407.741791,114.904480 402.471008,118.423141 402.934814,125.540939 
	C397.019043,121.089546 397.009583,121.082603 401.593292,114.843178 
	C403.616180,112.089592 405.927338,109.514603 407.669006,106.596733 
	C409.504639,103.521408 411.559296,104.005989 413.401581,105.992760 
	C417.515778,110.429581 421.157776,115.313911 425.377838,119.639687 
	C428.478333,122.817848 427.704193,125.571243 425.341339,128.779449 
z"/>
<path fill="#2D2C7D" opacity="1.000000" stroke="none" 
	d="
M402.072937,198.031799 
	C399.394348,197.746933 396.693970,197.221786 393.992615,197.216629 
	C391.217468,197.211349 388.383972,198.174835 385.685028,197.838776 
	C383.754150,197.598343 382.003113,195.913879 380.171814,194.873703 
	C381.826172,192.925644 383.426910,190.926666 385.183563,189.075699 
	C385.505768,188.736176 386.461365,188.997742 387.782349,189.307983 
	C393.652161,189.400162 398.864197,189.166214 404.076202,188.932266 
	C405.042938,190.489212 407.023071,192.283432 406.727722,193.544846 
	C406.331482,195.237152 404.175781,196.517487 402.394104,197.980591 
	C402.012756,197.986481 402.050690,198.019836 402.072937,198.031799 
z"/>
<path fill="#D1E5F5" opacity="1.000000" stroke="none" 
	d="
M724.569092,192.279388 
	C723.061890,201.858566 721.621826,211.496033 719.440491,220.962708 
	C719.147400,222.234879 715.116882,222.645905 712.103394,222.818893 
	C714.232178,211.889954 718.680420,202.201859 724.006348,192.481171 
	C724.100952,192.150040 724.403625,192.284103 724.569092,192.279388 
z"/>
<path fill="#DCE1EE" opacity="1.000000" stroke="none" 
	d="
M270.676910,183.872406 
	C272.016785,187.167191 274.928314,187.078323 277.835693,187.741379 
	C278.063721,188.068253 277.929291,188.487732 277.980286,188.701431 
	C277.153168,189.200943 276.275146,189.735413 275.396851,189.735855 
	C257.884705,189.744675 240.372543,189.691849 222.542862,189.410385 
	C222.253540,188.679520 222.281738,188.189728 222.237488,187.437668 
	C236.456223,187.095734 250.748199,187.069839 265.037109,186.846695 
	C266.352264,186.826157 267.647736,185.547684 269.012482,184.419098 
	C269.502289,183.971130 269.931915,183.957367 270.676910,183.872406 
z"/>
<path fill="#D1E5F5" opacity="1.000000" stroke="none" 
	d="
M625.715088,190.151855 
	C624.831055,196.093353 623.735779,202.102448 622.310303,208.333221 
	C619.575378,202.103958 622.610657,196.432938 624.816284,190.348419 
	C625.079163,190.091568 625.503845,190.219437 625.715088,190.151855 
z"/>
<path fill="#D7D9E9" opacity="1.000000" stroke="none" 
	d="
M308.998108,188.705750 
	C302.527069,189.151428 296.004425,189.378250 289.215240,189.265869 
	C288.948700,188.926682 289.052765,188.489105 288.986328,188.274445 
	C295.465363,187.826538 302.010834,187.593307 308.817810,187.708664 
	C309.079315,188.057251 308.946472,188.486908 308.998108,188.705750 
z"/>
<path fill="#C7C8DE" opacity="1.000000" stroke="none" 
	d="
M331.355835,187.946899 
	C336.721832,187.591568 342.329803,187.329071 348.395142,187.086258 
	C348.885559,187.797760 348.918610,188.489563 348.932495,189.524658 
	C343.423584,189.786209 337.933807,189.704468 332.179108,189.280441 
	C331.808716,188.638672 331.703247,188.339203 331.355835,187.946899 
z"/>
<path fill="#D7D9E9" opacity="1.000000" stroke="none" 
	d="
M404.011414,188.715668 
	C398.864197,189.166214 393.652161,189.400162 388.180115,189.287903 
	C387.920105,188.941696 388.051208,188.500809 387.985626,188.280548 
	C393.133301,187.828979 398.346527,187.597672 403.818176,187.716187 
	C404.076599,188.066010 403.946655,188.499084 404.011414,188.715668 
z"/>
<path fill="#DCE1EE" opacity="1.000000" stroke="none" 
	d="
M512.250183,205.921997 
	C512.203613,204.108261 512.064087,202.218887 512.668457,200.608749 
	C513.756409,197.710556 515.290283,194.979736 516.876587,191.949524 
	C517.115295,191.720047 517.086426,191.789719 517.086426,191.789719 
	C515.938599,196.460327 514.790710,201.130920 513.301086,205.968811 
	C512.959351,206.136124 512.492493,205.972198 512.250183,205.921997 
z"/>
<path fill="#D7D9E9" opacity="1.000000" stroke="none" 
	d="
M558.538208,188.102081 
	C557.303894,192.333450 555.774109,196.560638 554.244385,200.787811 
	C553.705078,200.607986 553.165833,200.428146 552.626526,200.248306 
	C553.886169,196.264236 555.145813,192.280182 556.740845,188.118561 
	C557.465149,187.993317 557.854004,188.045609 558.538208,188.102081 
z"/>
<path fill="#E0EEF9" opacity="1.000000" stroke="none" 
	d="
M608.099487,196.193054 
	C606.694580,203.096024 605.314636,209.572769 603.998718,216.062500 
	C602.596924,222.975372 601.825562,223.502045 594.064758,222.096268 
	C594.171326,220.756653 594.137146,219.326614 594.417236,217.961044 
	C596.581421,207.410461 598.813538,196.873825 601.009888,186.329834 
	C602.528076,179.041473 602.967957,178.755081 611.395569,180.354691 
	C610.314575,185.494019 609.233643,190.633270 608.099487,196.193054 
z"/>
<path fill="#DCE1EE" opacity="1.000000" stroke="none" 
	d="
M517.145874,191.697998 
	C517.176453,191.675949 517.168396,191.923798 517.168396,191.923798 
	C517.168396,191.923798 517.075928,191.672791 517.081177,191.731262 
	C517.086426,191.789719 517.115295,191.720047 517.145874,191.697998 
z"/>
<path fill="#D1E5F5" opacity="1.000000" stroke="none" 
	d="
M772.043701,172.722321 
	C772.245667,170.692734 772.532532,169.071716 772.858337,167.458557 
	C774.419189,159.729187 774.656433,159.561172 782.700500,160.115234 
	C781.212769,166.304489 779.716675,172.528519 778.220581,178.752548 
	C777.881042,178.698395 777.541565,178.644226 777.202026,178.590073 
	C777.051636,177.227905 776.901245,175.865738 776.734131,174.352081 
	C775.220764,173.950424 773.683716,173.542480 772.043701,172.722321 
z"/>
<path fill="#EFF5FA" opacity="1.000000" stroke="none" 
	d="
M427.427063,195.929611 
	C427.662567,192.403687 428.217010,189.145782 428.865570,185.906754 
	C430.256439,178.960159 430.846741,178.629135 438.976562,180.520828 
	C437.943481,185.603989 436.904755,190.714859 435.788727,196.206192 
	C433.022919,196.206192 430.405823,196.206192 427.427063,195.929611 
z"/>
<path fill="#F4F9FD" opacity="1.000000" stroke="none" 
	d="
M290.429504,199.466476 
	C290.739441,198.680237 291.505280,197.043076 292.285706,197.036072 
	C308.607635,196.889496 324.931366,196.908340 341.254150,196.999451 
	C341.898315,197.003036 342.536743,198.041916 343.105225,199.078247 
	C336.254761,199.484894 329.454346,199.074097 322.711456,199.524689 
	C320.403473,199.678909 318.239746,201.991959 315.723175,203.489426 
	C315.420166,197.980652 310.715790,199.383743 306.775757,199.350296 
	C301.481689,199.305328 296.186737,199.361786 290.429504,199.466476 
z"/>
<path fill="#F4F9FD" opacity="1.000000" stroke="none" 
	d="
M228.910004,201.452408 
	C228.097687,201.029663 227.337708,200.214371 226.273529,199.479614 
	C226.732010,198.686279 227.487335,197.057587 228.258438,197.050064 
	C243.581772,196.900620 258.907043,196.918381 274.231262,197.009018 
	C274.878662,197.012848 275.519928,198.046539 276.097931,199.079575 
	C261.560608,199.482880 247.089310,199.365173 232.618469,199.407043 
	C231.398178,199.410568 230.180984,200.483643 228.910004,201.452408 
z"/>
</svg>